<svg xmlns="http://www.w3.org/2000/svg" xml:space="preserve" width="1238.573" height="242.238" version="1.0" style="shape-rendering:geometricPrecision;text-rendering:geometricPrecision;image-rendering:optimizeQuality;fill-rule:evenodd;clip-rule:evenodd" viewBox="0 0 12901.81 2523.31"><defs><style>.fil0,.fil1{fill:#fff}.fil1{fill-rule:nonzero}</style></defs><g id="Layer_x0020_1"><path class="fil0" d="M12513.06 2517.68V528.03c0-107.22-34.51-137.52-141.73-137.52H-.48v-63.2h12371.81v-.25c70.23 0 119.09 12.24 154.69 46.15 36.28 34.54 50.48 83.08 50.48 154.81v1989.65h-63.44zm325.07-63.44V390.51h-.25V196.38c0-36.09-14.63-68.77-38.28-92.41-23.64-23.65-56.31-38.28-92.41-38.28v-.25H-.49V2.24h12707.68c107.22 0 194.13 86.91 194.13 194.13v2321.3h-63.2v-63.44z"/><g id="_2686803838304"><path class="fil0" d="M11003.56 1363.22c1.84 9.3 3.91 18.56 6.15 27.8-.7-3.92-1.55-8.28-2.54-13.14-1.18-5.06-2.39-10-3.61-14.66zm46.67 145.42c1.01 2.23 2.06 4.45 3.09 6.67-.12-1.77-1.28-4.13-3.09-6.67zm118.15 178.31a675.403 675.403 0 0 0 43.06 42.76l-27.96-27.96-15.11-14.8zm699.17-1068.8c96.86 32.54 171.01 74.15 210.36 118.04 46.15 51.45 85.51 127.13 71.13 136.96-5.3 3.03-34.06 19.68-63.56 36.32l-54.48 30.27-89.29-38.59c-49.94-21.19-108.21-45.41-130.15-53.72-32.54-12.11-42.38-20.43-56-46.16-8.33-17.4-29.51-53.72-46.91-80.96-17.41-27.24-34.06-52.97-37.08-58.27-6.06-9.83 37.83-35.57 89.29-52.21 41.62-12.86 43.13-12.86 106.7 8.33zm-547.1 111.99c-32.54 34.05-69.62 78.7-83.24 99.89-12.86 20.43-28 41.62-34.05 46.92-68.86 62.81-131.67 123.34-143.02 139.99-20.43 28-32.54 137.72-24.22 215.66 6.06 55.24 0 105.19-14.38 119.56-8.32 8.32-15.89-107.45-10.59-172.53 2.27-34.06 9.83-84 15.89-111.24 16.65-70.37 78.7-192.2 127.88-251.22 44.65-53.73 124.1-121.83 178.58-152.85 28.75-16.65 34.81-17.41 40.1-7.57 4.54 8.32-8.32 27.24-52.96 73.4zm314.03-73.4c17.41 5.3 54.48 54.48 99.13 133.18l24.21 43.13-48.43 59.02c-26.48 32.54-63.56 79.46-83.24 105.19l-34.81 46.15-111.99 6.06c-61.3 3.03-125.61 6.06-142.26 6.81l-30.27.76-43.89-84.75-43.89-84.74 27.24-43.89c15.89-24.21 53.73-70.37 85.51-102.15 55.24-56.75 59.78-59.02 111.23-69.62 89.3-19.67 155.88-24.22 191.45-15.13zm633.36 353.38c33.3 68.11 45.4 148.31 38.59 248.96l-6.05 71.89-55.24 42.37c-31.03 24.22-59.02 43.13-62.81 43.13-3.78 0-9.83-7.57-14.38-17.41-4.54-9.08-35.57-52.21-69.62-95.35l-61.29-79.45 2.27-136.21 1.52-136.2 64.32-36.32 64.32-36.32 35.57 37.83c19.67 21.19 47.67 62.81 62.81 93.07zm-596.28 172.53 77.19 119.56-17.41 40.11c-9.84 21.94-29.51 65.83-43.89 96.86-14.37 31.02-32.54 71.13-40.1 88.53-8.33 18.92-20.43 33.3-29.51 35.57-9.08 2.27-69.62 6.06-135.45 9.08l-119.56 5.3-22.7-21.94c-29.51-28-80.97-105.94-115.02-174.04l-27.24-53.72 28.76-71.13c15.89-39.35 40.86-95.35 56-124.86l27.24-54.48 47.67-5.3c70.37-8.32 195.98-15.89 217.93-12.11 15.14 1.52 34.81 26.49 96.1 122.59zm414.67 127.88c31.78 39.35 64.32 84.75 72.65 100.65l15.13 28-23.46 56c-12.86 30.27-40.86 82.48-62.8 115.02-32.54 49.94-45.4 62.81-77.19 77.94-49.19 22.7-139.99 46.16-192.2 48.43l-41.62 1.52-54.48-67.35c-80.96-100.64-80.21-99.13-59.02-144.54 53.72-115.02 84.75-183.87 89.29-199.01 3.79-10.59 13.62-18.92 25.73-21.19 11.35-2.27 69.62-18.92 130.15-37.07 60.54-17.41 111.99-31.79 115.02-31.03 3.03 0 31.78 33.3 62.81 72.64zm-929.23 22.7c21.95 0 26.48 5.3 66.59 77.19 43.13 77.18 71.13 118.04 108.96 159.66 18.16 19.67 19.67 26.48 19.67 96.86v74.91h-22.7c-12.11 0-44.64-8.33-71.89-17.41-43.89-15.13-53.73-23.46-96.86-73.4-49.19-59.02-107.45-166.47-124.1-228.52-7.57-30.27-6.81-41.62 3.78-76.43l12.87-40.86 40.1 13.62c21.19 7.57 49.94 13.62 63.56 14.38zm927.72 366.24 21.94 17.41-52.21 37.83c-108.97 80.96-251.22 130.91-370.03 130.91-31.78 0-41.62-3.03-48.43-14.38-6.06-12.11-4.54-15.89 8.33-19.67 8.32-3.02 44.65-24.97 80.97-49.19 59.78-39.35 72.64-44.65 137.72-56 39.35-6.81 99.13-24.22 132.42-37.83 33.3-14.38 62.05-25.73 64.32-25.73 2.27-.76 13.62 6.81 24.97 16.65zm-766.54 55.24c18.92 2.27 65.07 18.92 102.15 37.08 37.83 18.16 95.34 40.11 128.64 49.19 56.75 15.14 71.13 23.46 71.89 40.1 0 22.7-196.74-33.29-276.2-78.69-58.27-32.54-102.16-65.83-75.67-56.75 8.32 3.02 30.27 6.81 49.19 9.08z"/><path class="fil1" d="M12177.26 842.13c-108.14-142.6-263.87-227.87-428.19-250.44-164.35-22.58-337.3 17.52-479.9 125.67-142.61 108.16-227.88 263.88-250.46 428.2-22.57 164.34 17.53 337.29 125.66 479.89 108.17 142.62 263.89 227.9 428.21 250.47 164.35 22.57 337.3-17.53 479.89-125.67 142.61-108.15 227.89-263.88 250.46-428.2 22.58-164.35-17.52-337.31-125.67-479.91zm-426.64-261.99c167.28 22.98 325.81 109.79 435.91 254.96 110.1 145.18 150.94 321.22 127.95 488.49-22.98 167.28-109.79 325.8-254.95 435.9-145.19 110.11-321.24 150.95-488.5 127.97-167.27-22.98-325.79-109.79-435.89-254.94l-.02-.03c-110.09-145.17-150.94-321.22-127.96-488.48 22.98-167.28 109.79-325.8 254.96-435.89 145.19-110.12 321.24-150.95 488.5-127.97z"/><path d="M11126.01 848.82c-34.52 22.65-202.15 118.98-415.85 239.48l-10.35 44.88c199.86-100.51 359.06-178.96 361.09-176.93.46.69.78 1.96.93 3.59 17.82-39.22 39.37-76.37 64.19-111.03zm-509.68 292.28-32.59 18.29-12.53 7.04h62.6l50.26-25.33h-67.74zm-222.85 125.33c-204.26 115.09-349.01 197.27-346.72 197.27 3.69 0 70.17-32.5 147.73-73.13 74.66-38.62 157.74-81.2 242.06-124.14h-43.07zm657.96-282.36c-22.53 17.76-104.04 64.26-413.52 236.78l-9.73 41.73c39.91-20.36 82.15-41.93 126.9-64.78 145.51-73.87 265.91-133.69 267.39-132.22.4.4.48 2.64.29 6.3a655.36 655.36 0 0 1 28.67-87.81zm-531.36 302.44-136.51 76c-98.93 54.84-189.49 105.59-255.75 143.11h21.59c77.56-38.94 194.21-98.03 362.42-183.71l8.25-35.4zm484.86-103.73-70.35 39.39c-41.37 22.17-175.8 96.03-299.89 163.98l-40.48 22.19-6.52 27.96c51.74-26.73 102.83-53.09 131.94-68.61 231.54-120.78 273.69-142.87 283.52-140.86.12-14.8.69-29.49 1.77-44.04zm-528.31 290.15-59.42 32.69h36.99l16.85-8.78 5.57-23.91zm-240.98 132.69c-73.11 40.09-155.96 84.76-195.53 105.52-7.42 3.96-14.72 7.88-21.74 11.67h14.57c61.76-30.63 149.39-75.25 230.02-117.19h-27.31zm767.93-349.57c-10.5 10.11-82.52 53.67-166.48 100.55-48.23 26.31-147.25 81.02-264.87 146.13l-11.53 49.46c74.62-38.25 149.23-76.48 221.74-113.61 116.89-60.2 215.85-107.78 227.78-109.46-3.54-23.96-5.76-48.35-6.64-73.08zm-617.13 349.57-135.82 75.24-75.74 41.95h53.26c73.45-37.72 150.37-77.19 228.35-117.19h-70.05zm-391.94 217.19c-125.01 69.34-222.07 123.24-249.83 138.72-44.32 25.11-90.11 49.49-101.19 55.4-11.81 5.91-19.2 11.81-17.72 13.29 1.47 1.48 20.68-6.65 42.1-18.46 18.19-9.98 164.26-85.38 365.68-188.95h-39.03zm1034.7-406.51c-.92 2.79-2.42 4.91-4.5 6.78-5.42 4.93-255.22 144.85-534.29 299.74h70.74l-3.26 14.41c14.01-7.22 26.26-13.54 36.19-18.7 385.97-199.43 446.74-230.03 462.11-226.83a653.946 653.946 0 0 1-26.99-75.39zm-719.3 406.51c-80.66 44.6-159.96 88.34-232.86 128.38-35.71 20.02-115.81 64.21-199.94 110.81h48.09c32.89-16.93 64.27-33.17 92.76-48.03 48.75-25.11 175.05-90.11 280.68-144.03l92.27-47.13h-81zM9697.7 2162c-79.45 44.28-148.62 82.28-170.92 94.24-30.29 16.25-58.35 32.5-62.79 36.93-3.96 3.96 120.54-57.88 265.26-131.17h-31.55zm1368.28-648.61c-8.73 6.82-29.09 19.56-52.36 32.3-31.76 16.99-130.73 71.65-220.11 121.14-56.93 31.52-153.12 84.93-251.15 139.2l-14.1 62.43c60.56-31.14 123.26-63.41 161.85-83.46 321.47-165.95 392.31-203.11 412.08-205.19-13.28-21.36-25.39-43.52-36.2-66.43zm-640.41 357.21-45.69 25.2c-128.8 71.16-213.74 117.93-301.22 166.21h73.31l35.86-18.48c56.05-28.67 150.54-77.1 224.76-115.46l12.98-57.46zm-527.7 291.41c-24.65 13.67-50.91 28.23-79.34 44.02-101.93 56.13-413.63 228.23-519.25 285.84-61.31 33.24-71.65 45.06-14.04 16.25 32.15-16.67 349.51-179.78 672.57-346.11h-59.95zm1218.86-559.77c-5.08 6.69-21.92 15.5-61.01 36.52-30.28 16.25-188.35 104.15-350.84 194.26-66.91 37.41-134.18 74.81-192.87 107.37l-11.95 52.91 53.4-27.33c160.28-81.98 362.67-186.13 449.82-230.45l154.13-79.59c-14.43-17.18-28.03-35.09-40.68-53.69zm-721.54 402.89c-26.12 14.46-45.6 25.26-55.94 31.02-9.06 5.06-25.17 13.98-46.62 25.87h73.35l18.5-9.48 10.7-47.4zm-282.92 156.89a61052.56 61052.56 0 0 0-138.63 77.26c-162.49 90.11-320.56 178.01-350.84 194.26-30.29 16.24-58.35 32.49-62.78 36.93-6.65 6.65 214.93-104.89 568.74-286.59l42.48-21.86h-58.97zm1116.98-432.88-67.9 37.42c-39.89 21.42-108.58 59.83-153.63 84.94-44.32 25.11-129.26 72.39-188.35 104.88-50.5 27.9-194.7 107.63-355.35 196.57l-2.05 9.07h-14.33c-171.02 94.69-357.51 198.06-468.07 259.7-124.09 68.69-153.64 90.85-44.32 33.23 36.93-19.94 144.78-75.33 237.84-123.35 93.81-48.01 233.41-119.66 310.22-159.54 305.06-157.33 508.92-261.47 651.47-333.86 95.36-47.93 130.64-65.15 147.15-67.63a663.212 663.212 0 0 1-52.66-41.43zm76.37 57.45c1.18 2.32 1.47 4.11.5 5.07-2.96 2.95-374.48 207.56-682.49 375.22-307.27 168.41-336.07 184.65-336.07 188.35 0 1.48 44.31-19.94 98.24-48.01 53.18-28.07 144.03-75.34 200.9-104.89 56.88-29.54 133.69-69.43 169.89-88.63 214.65-113.13 572.4-296.03 590.22-302.64a656.597 656.597 0 0 1-41.19-24.48zm139.98 68.25 3.82 1.82-73.13 40.63c-217.15 121.87-597.55 333.86-756.35 421.76-99.71 54.66-183.91 103.41-188.34 107.1-6.65 6.64 455.73-226.02 672.14-338.29 265.69-137.91 390.22-198.17 434.45-208.25-31.72-6.05-62.65-14.35-92.59-24.77zm112.33 28.23c.04.3.07.6.07.92 0 4.44-766.69 438.74-941.75 532.55-24.37 13.29-47.27 27.33-51.7 31.02-7.39 7.38 410.67-203.13 864.19-435.06 173.31-88.78 224.96-113.98 259.65-121.76-8.68.34-17.39.56-26.15.56-35.5 0-70.33-2.82-104.3-8.24zm632.81-256.96c7.46-9.59 14.7-19.41 21.68-29.44 49.93-71.69 82.95-156.58 98.3-246-18.5 101.91-60.41 195.65-119.98 275.44zm107.78-566.37c-8.02-30.74-18.24-60.91-30.7-90.16-27.18-64.48-67.63-125.71-116.87-179.65 68.76 75.94 120.04 167.99 147.57 269.81zm-149.86-272.31c-1.37-1.48-2.74-2.96-4.12-4.43 1.37 1.48 2.76 2.94 4.12 4.43zm-57.48-55.67c-52.87-45.71-112.23-83.33-174.2-109.33-35.67-14.78-74.86-26.39-115.32-34.54 108.95 23.47 207.91 73.83 289.52 143.87z" style="fill:#fff;fill-rule:nonzero"/><path d="M12048.43 2005.98c-18.81 14.63-18.81 15.67 4.18 4.18 12.54-6.27 22.98-13.58 22.98-15.67 0-8.36-5.22-6.27-27.16 11.5z" style="fill:#000;fill-rule:nonzero"/></g><path class="fil1" d="M1268.26 1086.75c0 76.84-21.09 140.1-62.97 190.08-42.18 49.69-106.31 87.24-192.68 112.66l-1.74 6.93c68.46 19.65 120.46 48.24 155.7 85.51 35.53 37.27 53.15 89.56 53.15 157.44 0 132.59-54.31 236.3-162.93 310.83-108.62 74.53-262.3 111.8-461.05 111.8H49.76l290.9-1260.08h459.6c151.66 0 267.79 24.84 347.81 74.82 80.02 49.98 120.17 119.89 120.17 210.02zm-341.45 52.57c0-36.98-14.73-63.84-44.2-80.31-29.46-16.47-70.49-24.85-122.77-24.85H612.8l-61.24 265.19h148.48c71.35 0 127.11-13.57 166.97-40.73 39.86-27.44 59.8-67.02 59.8-119.31zm-38.13 507.85c0-46.22-17.33-79.73-52.29-100.24-34.95-20.51-90.13-30.91-164.95-30.91H501.58l-72.51 313.72h163.8c94.75 0 167.55-15.6 218.97-46.51 51.13-30.91 76.84-76.26 76.84-136.06z"/><path id="_1" class="fil1" d="M2635.23 1119.1c0 100.81-30.62 185.75-92.15 254.5s-145.02 120.46-250.46 155.41l290.61 532.98h-363.12l-236.88-462.78h-181.7l-106.59 462.78h-324.99l290.9-1260.08h491.38c153.97 0 272.99 26 357.06 78.29 84.06 52 125.95 131.72 125.95 238.9zm-350.12 54.02c0-50.56-16.18-86.37-48.82-107.46-32.35-21.09-80.31-31.49-143.28-31.49h-160.9l-78 337.99h159.75c86.08 0 152.81-17.62 200.19-52.57 47.38-35.24 71.07-84.06 71.07-146.46z"/><path id="_2" class="fil1" d="M3902.54 2062h-329.03l-28.89-258.26h-459.89L2936.82 2062h-339.43l754.83-1260.08h375.25L3902.53 2062zm-381.61-483.58-51.42-448.63-256.81 448.63h308.23z"/><path id="_3" class="fil1" d="M4533.16 2084.53c-107.75 0-203.95-9.24-288.3-27.73-84.35-18.78-157.15-41.89-218.68-69.33l65.28-301.59H4127c58.06 52.87 126.53 93.89 205.1 122.77 78.28 29.18 162.93 43.62 253.06 43.62 92.73 0 160.91-12.71 204.24-37.84 43.62-25.13 65.29-60.95 65.29-108.04 0-17.33-3.47-32.65-10.69-45.35-6.93-12.42-20.51-25.13-41.02-37.56-20.22-12.42-47.96-24.56-83.49-36.69-35.24-12.13-80.89-26-136.64-41.89-61.53-17.04-116.7-35.24-165.53-54.89-48.82-19.93-90.42-43.33-125.08-70.2-34.38-27.73-60.37-59.51-78.29-95.62-17.62-36.11-26.57-79.44-26.57-129.42 0-126.53 55.75-227.35 167.26-302.46 111.51-75.4 264.04-112.95 457.58-112.95 93.02 0 180.83 7.51 263.74 22.82 82.62 15.31 152.81 35.82 210.3 61.82l-61.82 289.74h-34.67c-44.2-40.44-102.26-74.24-174.19-101.4-72.22-27.15-150.8-40.73-236.3-40.73-83.48 0-148.19 12.13-193.84 36.11-45.93 24.26-68.75 57.78-68.75 100.53 0 19.65 3.47 36.11 10.11 48.82 6.93 13 20.51 25.71 41.6 38.13 17.91 11.27 46.51 23.69 85.51 36.98 39 13 84.64 26.87 137.22 41.02 140.97 37.56 241.79 82.04 302.17 132.59 60.38 50.84 90.71 119.6 90.71 206.55 0 72.8-16.46 136.64-49.11 191.81-32.64 55.46-77.7 100.24-135.48 134.62-60.38 36.69-128.84 63.56-205.68 80.31-76.56 17.04-163.5 25.42-260.57 25.42z"/><path id="_4" class="fil1" d="M5885.97 2088c-170.44 0-301.88-41.89-394.32-125.95s-138.66-204.24-138.66-360.81c0-123.93 20.51-236.01 61.24-336.83 41.02-100.53 97.35-187.77 168.99-261.15 69.91-71.35 153.97-127.11 251.9-167.26 97.93-40.15 200.77-60.09 308.52-60.09 86.67 0 167.55 8.96 242.08 26.58 74.24 17.91 141.55 43.91 201.35 78.57l-74.53 305.63h-37.26c-53.73-57.78-106.89-100.24-160.04-127.39-53.15-27.15-115.55-40.73-187.19-40.73-125.95 0-229.66 50.56-311.12 151.95-81.75 101.4-122.48 230.81-122.48 387.67 0 100.82 22.54 173.91 67.6 219.26 45.07 45.35 111.22 67.89 198.17 67.89 77.71 0 150.8-15.6 218.97-46.8 68.18-31.2 132.89-71.06 193.84-119.59h33.8l-73.67 301.01c-25.42 10.11-54.89 22.24-88.69 36.69-33.8 14.44-66.15 26-97.35 34.96-40.44 11.84-78.57 20.8-113.82 27.15-35.24 6.07-84.35 9.24-147.33 9.24z"/><path id="_5" class="fil1" d="M7950.57 1270.76c0 103.13-17.33 204.81-52.28 304.48-34.96 99.95-85.8 187.19-152.24 261.44-72.8 81.17-157.44 143.57-254.5 186.61-97.06 43.04-208.57 64.71-334.81 64.71-171.88 0-306.5-44.49-403.56-133.17-97.35-88.98-145.89-211.17-145.89-366.87 0-109.2 18.49-213.48 55.76-311.99 37.26-98.8 90.42-185.75 159.75-260.57 67.6-72.8 151.37-130.86 251.04-174.48 99.95-43.33 208.57-65 326.43-65 172.46 0 307.37 44.49 404.43 133.75 97.35 88.97 145.88 209.44 145.88 361.09zm-463.94 430.14c38.13-50.26 68.18-108.61 89.84-175.06 21.67-66.15 32.64-142.7 32.64-229.08 0-90.13-21.67-160.91-64.71-212.04-43.04-51.13-104.57-76.55-184.59-76.55-52.57 0-102.55 12.13-150.22 36.11-47.67 23.98-91.57 60.38-131.44 109.49-39 46.8-70.2 105.15-93.88 174.77-23.69 69.91-35.54 148.2-35.54 235.15 0 96.49 22.24 169.28 66.44 218.39 44.2 49.11 105.44 73.66 183.72 73.66 54.31 0 106.31-13.29 156.57-40.15 50.26-26.87 93.89-65 131.15-114.69z"/><path id="_6" class="fil1" d="M9387.74 1293.58c0 142.7-37.56 274.43-112.66 395.19-74.82 120.75-171.02 213.19-288.3 277.61-71.06 38.42-145.31 63.84-222.72 76.55-77.13 12.71-169.57 19.07-277.32 19.07H8030.6l290.9-1260.08h407.89c120.17 0 216.94 9.24 290.32 28.02 73.37 18.49 132.59 43.62 177.66 75.11 62.11 43.04 109.2 96.48 141.84 160.61 32.35 63.84 48.53 139.82 48.53 227.93zm-341.45 29.46c0-57.48-10.69-106.89-32.06-148.19-21.38-41.6-54.31-74.82-98.22-100.24-20.22-11.27-41.02-19.65-62.11-25.71-21.09-5.78-45.06-10.4-72.22-13-26-2.31-55.46-3.47-88.69-3.47h-98.22l-184.02 797.3h134.04c36.98 0 67.02-1.44 90.13-4.33 29.76-2.6 56.62-7.22 80.6-13.29 23.69-6.35 49.98-16.76 78.86-31.49 80.89-41.6 143-103.71 186.61-186.61 43.62-82.62 65.29-173.04 65.29-270.97z"/><path id="_7" class="fil1" d="m10673.82 801.91-55.17 239.19h-589.02l-52 225.33h547.13l-55.75 239.19h-546.56l-73.08 317.19h587l-54.02 239.19H9469.2l290.91-1260.09z"/></g></svg>